<svg id="visual" viewBox="0 0 900 600" width="900" height="600" xmlns="http://www.w3.org/2000/svg" xmlns:xlink="http://www.w3.org/1999/xlink" version="1.1"><g stroke-width="1" stroke-linejoin="bevel"><path d="M419 291L361 220L294 333Z" fill="#192133" stroke="#192133"></path><path d="M294 333L363 366L419 291Z" fill="#f7caca" stroke="#f7caca"></path><path d="M361 220L238 236L294 333Z" fill="#dfb4ba" stroke="#dfb4ba"></path><path d="M205 388L326 420L294 333Z" fill="#c69faa" stroke="#c69faa"></path><path d="M294 333L326 420L363 366Z" fill="#ac8a9a" stroke="#ac8a9a"></path><path d="M363 366L485 383L419 291Z" fill="#796479" stroke="#796479"></path><path d="M361 220L278 160L238 236Z" fill="#605268" stroke="#605268"></path><path d="M413 491L485 383L363 366Z" fill="#f7caca" stroke="#f7caca"></path><path d="M162 284L205 388L294 333Z" fill="#92778a" stroke="#92778a"></path><path d="M361 220L292 123L278 160Z" fill="#474157" stroke="#474157"></path><path d="M88 180L162 284L238 236Z" fill="#474157" stroke="#474157"></path><path d="M392 79L292 123L361 220Z" fill="#f7caca" stroke="#f7caca"></path><path d="M221 115L238 236L278 160Z" fill="#c69faa" stroke="#c69faa"></path><path d="M238 236L162 284L294 333Z" fill="#001122" stroke="#001122"></path><path d="M485 383L534 334L419 291Z" fill="#796479" stroke="#796479"></path><path d="M525 164L392 79L361 220Z" fill="#f7caca" stroke="#f7caca"></path><path d="M205 388L320 483L326 420Z" fill="#ac8a9a" stroke="#ac8a9a"></path><path d="M326 420L413 491L363 366Z" fill="#f7caca" stroke="#f7caca"></path><path d="M320 483L413 491L326 420Z" fill="#dfb4ba" stroke="#dfb4ba"></path><path d="M485 383L602 431L534 334Z" fill="#474157" stroke="#474157"></path><path d="M525 164L361 220L419 291Z" fill="#f7caca" stroke="#f7caca"></path><path d="M262 0L221 115L292 123Z" fill="#605268" stroke="#605268"></path><path d="M292 123L221 115L278 160Z" fill="#c69faa" stroke="#c69faa"></path><path d="M534 334L525 164L419 291Z" fill="#303045" stroke="#303045"></path><path d="M413 491L491 469L485 383Z" fill="#c69faa" stroke="#c69faa"></path><path d="M162 284L101 333L205 388Z" fill="#001122" stroke="#001122"></path><path d="M205 388L237 538L320 483Z" fill="#f7caca" stroke="#f7caca"></path><path d="M88 180L101 333L162 284Z" fill="#303045" stroke="#303045"></path><path d="M525 164L501 82L392 79Z" fill="#dfb4ba" stroke="#dfb4ba"></path><path d="M534 334L587 162L525 164Z" fill="#474157" stroke="#474157"></path><path d="M525 164L587 84L501 82Z" fill="#001122" stroke="#001122"></path><path d="M602 431L618 326L534 334Z" fill="#dfb4ba" stroke="#dfb4ba"></path><path d="M534 334L618 326L587 162Z" fill="#796479" stroke="#796479"></path><path d="M132 539L237 538L205 388Z" fill="#303045" stroke="#303045"></path><path d="M320 483L379 600L413 491Z" fill="#001122" stroke="#001122"></path><path d="M101 333L88 396L205 388Z" fill="#605268" stroke="#605268"></path><path d="M221 115L88 180L238 236Z" fill="#605268" stroke="#605268"></path><path d="M101 333L0 424L88 396Z" fill="#c69faa" stroke="#c69faa"></path><path d="M491 469L602 431L485 383Z" fill="#001122" stroke="#001122"></path><path d="M501 82L411 0L392 79Z" fill="#92778a" stroke="#92778a"></path><path d="M392 79L262 0L292 123Z" fill="#474157" stroke="#474157"></path><path d="M221 115L74 119L88 180Z" fill="#796479" stroke="#796479"></path><path d="M411 0L262 0L392 79Z" fill="#ac8a9a" stroke="#ac8a9a"></path><path d="M493 600L580 499L491 469Z" fill="#f7caca" stroke="#f7caca"></path><path d="M491 469L580 499L602 431Z" fill="#303045" stroke="#303045"></path><path d="M493 600L491 469L413 491Z" fill="#605268" stroke="#605268"></path><path d="M308 600L379 600L320 483Z" fill="#92778a" stroke="#92778a"></path><path d="M237 538L308 600L320 483Z" fill="#92778a" stroke="#92778a"></path><path d="M587 162L587 84L525 164Z" fill="#474157" stroke="#474157"></path><path d="M501 82L514 0L411 0Z" fill="#001122" stroke="#001122"></path><path d="M704 66L587 84L587 162Z" fill="#c69faa" stroke="#c69faa"></path><path d="M262 0L221 0L221 115Z" fill="#c69faa" stroke="#c69faa"></path><path d="M105 0L74 119L221 115Z" fill="#dfb4ba" stroke="#dfb4ba"></path><path d="M88 180L0 268L101 333Z" fill="#f7caca" stroke="#f7caca"></path><path d="M723 416L672 315L618 326Z" fill="#474157" stroke="#474157"></path><path d="M618 326L667 216L587 162Z" fill="#f7caca" stroke="#f7caca"></path><path d="M723 416L618 326L602 431Z" fill="#ac8a9a" stroke="#ac8a9a"></path><path d="M672 315L667 216L618 326Z" fill="#796479" stroke="#796479"></path><path d="M88 396L132 539L205 388Z" fill="#303045" stroke="#303045"></path><path d="M237 538L171 600L308 600Z" fill="#001122" stroke="#001122"></path><path d="M564 0L514 0L501 82Z" fill="#ac8a9a" stroke="#ac8a9a"></path><path d="M379 600L493 600L413 491Z" fill="#303045" stroke="#303045"></path><path d="M0 214L0 268L88 180Z" fill="#605268" stroke="#605268"></path><path d="M88 396L0 494L132 539Z" fill="#605268" stroke="#605268"></path><path d="M74 119L0 214L88 180Z" fill="#605268" stroke="#605268"></path><path d="M132 539L171 600L237 538Z" fill="#ac8a9a" stroke="#ac8a9a"></path><path d="M704 0L564 0L587 84Z" fill="#605268" stroke="#605268"></path><path d="M587 84L564 0L501 82Z" fill="#796479" stroke="#796479"></path><path d="M0 268L0 424L101 333Z" fill="#474157" stroke="#474157"></path><path d="M132 539L97 600L171 600Z" fill="#ac8a9a" stroke="#ac8a9a"></path><path d="M221 0L105 0L221 115Z" fill="#796479" stroke="#796479"></path><path d="M74 119L0 93L0 214Z" fill="#192133" stroke="#192133"></path><path d="M697 600L683 474L580 499Z" fill="#474157" stroke="#474157"></path><path d="M580 499L683 474L602 431Z" fill="#192133" stroke="#192133"></path><path d="M672 315L762 332L667 216Z" fill="#303045" stroke="#303045"></path><path d="M493 600L589 600L580 499Z" fill="#303045" stroke="#303045"></path><path d="M683 474L723 416L602 431Z" fill="#dfb4ba" stroke="#dfb4ba"></path><path d="M0 494L97 600L132 539Z" fill="#f7caca" stroke="#f7caca"></path><path d="M105 0L0 93L74 119Z" fill="#dfb4ba" stroke="#dfb4ba"></path><path d="M0 424L0 494L88 396Z" fill="#605268" stroke="#605268"></path><path d="M723 416L762 332L672 315Z" fill="#dfb4ba" stroke="#dfb4ba"></path><path d="M667 216L704 66L587 162Z" fill="#c69faa" stroke="#c69faa"></path><path d="M788 202L704 66L667 216Z" fill="#ac8a9a" stroke="#ac8a9a"></path><path d="M723 416L789 364L762 332Z" fill="#ac8a9a" stroke="#ac8a9a"></path><path d="M762 332L788 202L667 216Z" fill="#92778a" stroke="#92778a"></path><path d="M834 489L789 364L723 416Z" fill="#192133" stroke="#192133"></path><path d="M834 489L723 416L683 474Z" fill="#f7caca" stroke="#f7caca"></path><path d="M900 273L788 202L762 332Z" fill="#605268" stroke="#605268"></path><path d="M105 0L0 0L0 93Z" fill="#ac8a9a" stroke="#ac8a9a"></path><path d="M817 75L704 0L704 66Z" fill="#92778a" stroke="#92778a"></path><path d="M704 66L704 0L587 84Z" fill="#605268" stroke="#605268"></path><path d="M589 600L697 600L580 499Z" fill="#303045" stroke="#303045"></path><path d="M0 494L0 600L97 600Z" fill="#ac8a9a" stroke="#ac8a9a"></path><path d="M788 202L817 75L704 66Z" fill="#ac8a9a" stroke="#ac8a9a"></path><path d="M900 132L817 75L788 202Z" fill="#303045" stroke="#303045"></path><path d="M697 600L834 489L683 474Z" fill="#f7caca" stroke="#f7caca"></path><path d="M789 364L900 273L762 332Z" fill="#c69faa" stroke="#c69faa"></path><path d="M900 427L900 273L789 364Z" fill="#c69faa" stroke="#c69faa"></path><path d="M697 600L812 600L834 489Z" fill="#192133" stroke="#192133"></path><path d="M834 489L900 427L789 364Z" fill="#ac8a9a" stroke="#ac8a9a"></path><path d="M900 0L830 0L817 75Z" fill="#92778a" stroke="#92778a"></path><path d="M817 75L830 0L704 0Z" fill="#f7caca" stroke="#f7caca"></path><path d="M900 273L900 179L788 202Z" fill="#92778a" stroke="#92778a"></path><path d="M900 472L900 427L834 489Z" fill="#474157" stroke="#474157"></path><path d="M900 179L900 132L788 202Z" fill="#796479" stroke="#796479"></path><path d="M900 600L900 472L834 489Z" fill="#796479" stroke="#796479"></path><path d="M900 132L900 0L817 75Z" fill="#303045" stroke="#303045"></path><path d="M812 600L900 600L834 489Z" fill="#ac8a9a" stroke="#ac8a9a"></path></g></svg>